<?xml version="1.0" standalone="no"?>
<!DOCTYPE svg PUBLIC "-//W3C//DTD SVG 20010904//EN"
 "http://www.w3.org/TR/2001/REC-SVG-20010904/DTD/svg10.dtd">
<svg version="1.0" xmlns="http://www.w3.org/2000/svg"
 width="512.000000pt" height="512.000000pt" viewBox="0 0 512.000000 512.000000"
 preserveAspectRatio="xMidYMid meet">
<metadata>
Created by potrace 1.11, written by Peter Selinger 2001-2013
</metadata>
<g transform="translate(0.000000,512.000000) scale(0.100000,-0.100000)"
fill="#000000" stroke="none">
<path d="M1301 3600 c-667 -236 -1224 -436 -1237 -445 -74 -49 -75 -191 0
-240 13 -9 576 -212 1251 -451 932 -331 1236 -435 1259 -431 44 7 2454 863
2482 882 75 49 75 191 0 240 -13 9 -572 209 -1242 445 -877 310 -1229 430
-1258 429 -27 0 -458 -148 -1255 -429z m1898 -237 c392 -142 716 -264 718
-271 3 -7 3 -15 0 -18 -3 -3 -272 -102 -599 -220 -471 -171 -603 -215 -643
-215 -41 0 -182 48 -755 256 -388 141 -709 261 -715 266 -5 6 -4 14 3 22 7 6
272 107 590 224 473 173 587 211 632 212 48 1 142 -30 769 -256z"/>
<path d="M1975 3444 c-231 -85 -489 -179 -573 -210 -84 -31 -150 -60 -145 -64
17 -15 1399 -512 1423 -512 32 1 1181 416 1181 427 0 14 -1393 514 -1431 514
-19 -1 -224 -70 -455 -155z m576 45 c72 -24 99 -43 83 -59 -6 -6 -201 -80
-435 -166 -476 -174 -502 -180 -601 -144 -71 26 -97 45 -83 59 22 21 891 330
931 331 22 0 69 -10 105 -21z m402 -146 c69 -25 95 -38 84 -44 -8 -5 -66 -27
-130 -50 l-116 -41 -106 38 c-58 20 -103 39 -100 43 10 9 229 89 249 90 11 0
64 -15 119 -36z m436 -158 c227 -82 249 -91 240 -98 -10 -9 -235 -87 -249 -87
-21 0 -500 174 -500 181 0 11 213 87 245 88 17 1 135 -37 264 -84z m-807 35
c46 -17 90 -33 98 -36 22 -8 3 -17 -132 -65 l-118 -41 -97 34 c-53 20 -98 39
-100 44 -3 10 210 91 244 93 12 0 59 -13 105 -29z m306 -112 c50 -18 92 -35
92 -39 0 -11 -223 -89 -254 -89 -31 0 -206 60 -206 71 0 10 212 87 245 88 17
1 72 -13 123 -31z m-666 -18 c46 -17 90 -33 98 -36 22 -8 3 -17 -132 -65
l-116 -41 -102 37 c-56 21 -98 41 -93 46 11 11 224 88 245 88 9 1 54 -13 100
-29z m948 -84 c91 -34 107 -42 99 -50 -10 -9 -233 -86 -249 -86 -16 0 -87 23
-189 62 -13 5 -21 11 -18 14 8 8 238 93 253 94 6 0 53 -15 104 -34z m-642 -28
c50 -18 92 -35 92 -39 0 -10 -221 -89 -250 -89 -28 0 -210 62 -210 71 0 10
213 87 245 88 17 1 72 -13 123 -31z m282 -102 c90 -34 108 -43 99 -49 -10 -9
-236 -87 -250 -87 -15 0 -171 55 -197 69 -10 5 27 24 109 54 68 25 129 46 135
46 6 1 53 -14 104 -33z"/>
<path d="M2755 3328 c-44 -16 -83 -33 -87 -37 -4 -4 23 -18 61 -31 l68 -23 94
33 c51 19 86 36 78 38 -8 3 -41 15 -74 27 l-60 22 -80 -29z"/>
<path d="M3037 3218 c-54 -20 -83 -34 -75 -39 23 -13 402 -150 418 -151 20 -2
170 53 170 62 0 5 -357 140 -415 156 -5 1 -50 -11 -98 -28z"/>
<path d="M2393 3197 c-46 -16 -83 -33 -83 -38 0 -4 30 -17 66 -29 l65 -22 91
33 c51 18 85 35 77 37 -8 3 -41 15 -74 27 l-60 22 -82 -30z"/>
<path d="M2676 3086 l-88 -33 72 -27 73 -27 88 32 c49 17 89 33 89 35 0 3 -94
38 -125 47 -11 3 -60 -9 -109 -27z"/>
<path d="M2023 3063 c-40 -15 -73 -30 -73 -34 0 -4 30 -18 68 -29 l67 -22 89
33 89 32 -64 23 c-79 29 -87 29 -176 -3z"/>
<path d="M2962 2978 l-84 -31 74 -27 73 -27 87 31 c49 17 88 33 88 36 0 7
-125 50 -142 49 -7 0 -51 -14 -96 -31z"/>
<path d="M2316 2956 l-89 -33 73 -26 72 -27 87 31 c47 17 87 33 89 34 2 2
-136 56 -141 54 -1 0 -42 -15 -91 -33z"/>
<path d="M2602 2848 l-84 -31 73 -27 73 -26 88 30 c48 17 84 34 80 38 -9 9
-121 48 -136 47 -6 0 -49 -14 -94 -31z"/>
<path d="M4683 2694 l-93 -43 0 -517 0 -517 -35 -38 c-87 -97 -83 -304 9 -388
l26 -24 0 -334 c0 -362 3 -385 54 -419 34 -22 81 -10 110 29 20 27 21 41 24
375 l3 347 24 25 c93 97 93 303 0 400 l-25 26 -2 560 -3 561 -92 -43z"/>
<path d="M1060 2078 l0 -354 25 -51 c92 -185 446 -333 985 -415 140 -21 189
-23 495 -23 319 1 351 2 514 28 519 81 866 229 956 410 l25 51 0 354 c0 333
-1 354 -17 347 -48 -18 -1324 -469 -1363 -481 -57 -18 -171 -18 -235 0 -39 10
-1289 450 -1367 481 -17 7 -18 -14 -18 -347z"/>
</g>
</svg>
